Coordinates
version=1
nRows=9
nColumns=24
inDegrees=yes

Units are S.I. units (second, meters, Newtons, ...)
Angles are in degrees.

endheader
time	pelvis_tilt	pelvis_list	pelvis_rotation	pelvis_tx	pelvis_ty	pelvis_tz	hip_flexion_r	hip_adduction_r	hip_rotation_r	knee_angle_r	ankle_angle_r	subtalar_angle_r	mtp_angle_r	hip_flexion_l	hip_adduction_l	hip_rotation_l	knee_angle_l	ankle_angle_l	subtalar_angle_l	mtp_angle_l	lumbar_extension	lumbar_bending	lumbar_rotation
      1.14450000	      1.23801469	      0.61172689	     -1.78860047	      0.23457896	      1.07724135	      0.27094047	     12.45548823	     -6.40845155	     -9.29195032	    -70.18884517	      1.25496685	     -5.53599476	      8.84499834	     11.06229269	      0.55788640	      3.76092063	    -23.14236638	     12.45715832	      3.78913319	      5.03693328	     -9.76645185	     -2.83943894	      1.32573922
      1.14866667	      1.22132648	      0.43164439	     -1.84014165	      0.24008708	      1.07871048	      0.27098094	     13.02881312	     -6.16384526	     -9.38184293	    -70.00503922	      1.58565736	     -5.11482096	      8.82558669	     10.47565906	      0.33642947	      3.67794174	    -22.59518333	     12.47391694	      3.89692304	      5.05376216	     -9.77612479	     -2.64751957	      1.28415619
      1.15283333	      1.21135919	      0.24030141	     -1.88225360	      0.24560529	      1.08016954	      0.27101836	     13.57081010	     -5.90210688	     -9.48740692	    -69.73906704	      1.87515342	     -4.76199507	      8.81144560	      9.87811738	      0.10295987	      3.59097170	    -22.03661528	     12.46043742	      3.97899497	      5.07139852	     -9.77210078	     -2.43650703	      1.23209732
      1.15700000	      1.20118222	      0.05677839	     -1.90898753	      0.25111998	      1.08157744	      0.27102467	     14.09592208	     -5.65220343	     -9.61198178	    -69.41228264	      2.16573615	     -4.40723467	      8.80286438	      9.28292396	     -0.11695195	      3.51949100	    -21.47559494	     12.43811981	      4.05514262	      5.09275145	     -9.77209476	     -2.23276353	      1.16282230
      1.16116667	      1.18888971	     -0.11825228	     -1.92339675	      0.25662384	      1.08292339	      0.27101687	     14.60771581	     -5.41413993	     -9.75203047	    -69.02726481	      2.45274744	     -4.05042887	      8.80228689	      8.69284287	     -0.32470477	      3.45967759	    -20.91400329	     12.40919996	      4.11804412	      5.11448530	     -9.77064040	     -2.03036206	      1.08467643
      1.16533333	      1.15816396	     -0.30234995	     -1.92930548	      0.26214592	      1.08419993	      0.27099171	     15.11932154	     -5.16331888	     -9.90504511	    -68.57251230	      2.69225967	     -3.79160517	      8.80890516	      8.12598206	     -0.54303396	      3.38895790	    -20.35462968	     12.35513192	      4.18076639	      5.12224694	     -9.72828544	     -1.80133925	      1.04144492
      1.16950000	      1.16135376	     -0.47143447	     -1.90389235	      0.26761812	      1.08546784	      0.27091228	     15.57396937	     -4.94106762	    -10.08355823	    -68.06200445	      3.00526686	     -3.37638987	      8.82251781	      7.53204276	     -0.73365809	      3.38663002	    -19.80478336	     12.34312742	      4.23436263	      5.14583014	     -9.77245117	     -1.61447972	      0.90415447
      1.17366667	      1.12846556	     -0.65107778	     -1.87961530	      0.27312890	      1.08662023	      0.27082395	     16.05166040	     -4.70426227	    -10.27384238	    -67.49185422	      3.24509116	     -3.13696249	      8.83329833	      6.98051130	     -0.94126620	      3.33984957	    -19.25844953	     12.28141145	      4.29473876	      5.15590900	     -9.73502424	     -1.37484408	      0.84010200
      1.17783333	      1.14889605	     -0.81477822	     -1.82189603	      0.27858401	      1.08779839	      0.27068106	     16.44902405	     -4.50028121	    -10.49349654	    -66.86181818	      3.53379946	     -2.77848153	      8.85469808	      6.37919752	     -1.12088512	      3.36081094	    -18.71654393	     12.27413708	      4.32832858	      5.18453664	     -9.79069098	     -1.17512961	      0.65543506
